HIERARCHY
ROOT Hips
{
 OFFSET 0.000000 0.000000 0.000000
 CHANNELS 6 Xposition Yposition Zposition Yrotation Xrotation Zrotation
 JOINT Chest
 {
  OFFSET 0.000000 9.585900 0.002600
  CHANNELS 3 Yrotation Xrotation Zrotation
  JOINT Chest2
  {
   OFFSET 0.000000 9.601200 -0.005300
   CHANNELS 3 Yrotation Xrotation Zrotation
   JOINT Chest3
   {
    OFFSET 0.000000 9.561800 0.000000
    CHANNELS 3 Yrotation Xrotation Zrotation
    JOINT Chest4
    {
     OFFSET 0.000000 9.552100 0.000000
     CHANNELS 3 Yrotation Xrotation Zrotation
     JOINT Neck
     {
      OFFSET 0.000000 14.453000 0.000000
      CHANNELS 3 Yrotation Xrotation Zrotation
      JOINT Head
      {
       OFFSET 0.000000 8.936500 -0.011300
       CHANNELS 3 Yrotation Xrotation Zrotation
       End Site
       {
        OFFSET 0.000000 17.073600 -0.006000
       }
      }
     }
     JOINT RightCollar
     {
      OFFSET -2.921100 9.558500 0.000000
      CHANNELS 3 Yrotation Xrotation Zrotation
      JOINT RightShoulder
      {
       OFFSET -13.519700 0.000000 0.000000
       CHANNELS 3 Yrotation Xrotation Zrotation
       JOINT RightElbow
       {
        OFFSET 0.000000 -29.696600 0.000000
        CHANNELS 3 Yrotation Xrotation Zrotation
        JOINT RightWrist
        {
         OFFSET 0.000000 -24.004700 0.000000
         CHANNELS 3 Yrotation Xrotation Zrotation
         End Site
         {
          OFFSET 0.000000 -17.728500 0.000000
         }
        }
       }
      }
     }
     JOINT LeftCollar
     {
      OFFSET 2.921100 9.558500 0.000000
      CHANNELS 3 Yrotation Xrotation Zrotation
      JOINT LeftShoulder
      {
       OFFSET 13.519700 0.000000 0.000000
       CHANNELS 3 Yrotation Xrotation Zrotation
       JOINT LeftElbow
       {
        OFFSET 0.000000 -29.696600 0.000000
        CHANNELS 3 Yrotation Xrotation Zrotation
        JOINT LeftWrist
        {
         OFFSET 0.000000 -24.004700 0.000000
         CHANNELS 3 Yrotation Xrotation Zrotation
         End Site
         {
          OFFSET 0.000000 -17.728500 0.000000
         }
        }
       }
      }
     }
    }
   }
  }
 }
 JOINT RightHip
 {
  OFFSET -7.771700 -0.012900 -0.001300
  CHANNELS 3 Yrotation Xrotation Zrotation
  JOINT RightKnee
  {
   OFFSET 0.000000 -40.869800 0.001200
   CHANNELS 3 Yrotation Xrotation Zrotation
   JOINT RightAnkle
   {
    OFFSET 0.000000 -39.717900 0.002100
    CHANNELS 3 Yrotation Xrotation Zrotation
    JOINT RightToe
    {
     OFFSET 0.000000 -4.965400 11.033500
     CHANNELS 3 Yrotation Xrotation Zrotation
     End Site
     {
      OFFSET 0.000000 -1.423100 5.872300
     }
    }
   }
  }
 }
 JOINT LeftHip
 {
  OFFSET 7.771700 -0.012900 -0.001300
  CHANNELS 3 Yrotation Xrotation Zrotation
  JOINT LeftKnee
  {
   OFFSET 0.000000 -40.869800 0.001200
   CHANNELS 3 Yrotation Xrotation Zrotation
   JOINT LeftAnkle
   {
    OFFSET 0.000000 -39.717900 0.002100
    CHANNELS 3 Yrotation Xrotation Zrotation
    JOINT LeftToe
    {
     OFFSET 0.000000 -4.965400 11.033500
     CHANNELS 3 Yrotation Xrotation Zrotation
     End Site
     {
      OFFSET 0.000000 -1.423100 5.872300
     }
    }
   }
  }
 }
}
MOTION
Frames: 14
Frame Time: 0.008333
0.000000 85.388000 0.000000 0.000000 -5.767877 0.000000 0.000000 11.653817 0.000000 0.000000 -5.885947 0.000000 0.000000 -0.000000 0.000000 0.000000 -0.000000 0.000000 0.000000 12.528835 0.000000 0.000000 0.711642 0.000000 0.000000 -0.000000 0.000000 0.000000 0.000000 -90.000000 0.000000 -2.309062 0.000000 0.000000 2.309062 0.000000 0.000000 -0.000000 0.000000 0.000000 -0.000000 90.000000 0.000000 -2.309062 0.000000 0.000000 2.309062 0.000000 0.000000 8.520406 0.000000 0.000000 1.905762 0.000000 -0.000000 -4.658285 0.000000 0.000000 -0.000000 0.000000 0.000000 8.520406 0.000000 0.000000 1.905762 0.000000 -0.000000 -4.658285 0.000000 0.000000 -0.000000 0.000000
-36.293687 62.117569 12.943925 175.813137 -52.339528 -0.936846 4.530676 27.127913 1.108123 0.674215 4.682836 0.148118 1.068019 7.391161 0.259058 3.421964 21.982636 1.237312 3.975302 16.649036 3.770386 6.053976 -4.929116 5.603029 7.001290 5.882137 5.755512 -1.839056 -24.048480 -24.184784 -110.387266 -70.864040 138.743995 20.794948 8.341780 23.897630 -11.616824 2.922973 -0.501147 -14.038626 -21.847391 30.618217 8.117322 -83.745792 -24.542940 8.114315 -6.668709 -16.109994 3.734660 -14.522789 -4.734472 -1.772766 60.726482 -5.323309 1.702764 -7.156826 10.535585 0.195736 -0.515748 0.094924 -3.510211 -11.524743 2.308027 29.775297 75.898434 31.373239 0.767130 -11.901090 -4.811058 0.286687 0.695602 0.141067
-36.294818 62.117717 12.940265 175.811679 -52.305394 -0.934457 4.555421 27.165372 1.117703 0.677076 4.685406 0.147898 1.079684 7.414020 0.260315 3.426927 21.967126 1.236318 3.926764 16.628845 3.751662 5.970337 -4.965650 5.584849 6.954987 5.841661 5.757790 -1.898350 -23.799331 -23.986995 -111.067179 -71.166518 139.416880 21.041081 8.475793 23.916016 -11.650838 2.967424 -0.514931 -14.079458 -21.605367 30.517895 6.633818 -83.869059 -23.095386 7.919253 -6.601119 -16.246363 3.741356 -14.558864 -4.739077 -1.775597 60.736888 -5.325644 1.710933 -7.164262 10.531016 0.188574 -0.516865 0.101378 -3.501674 -11.559736 2.318220 29.776949 75.907451 31.365208 0.773120 -11.905676 -4.799799 0.278973 0.690621 0.136232
-36.298663 62.113721 12.939112 175.825403 -52.233730 -0.930483 4.560131 27.169761 1.105624 0.679519 4.687348 0.147521 1.083577 7.416869 0.259900 3.421169 21.928147 1.236413 3.891323 16.648632 3.727823 5.886493 -5.006278 5.564193 6.927688 5.841237 5.759193 -1.949211 -23.534597 -23.787607 -111.758335 -71.421115 140.108052 21.274605 8.617747 23.915546 -11.668502 2.989410 -0.521265 -14.090123 -21.295733 30.366174 5.086285 -84.018621 -21.568604 7.755165 -6.540952 -16.370223 3.741765 -14.636745 -4.756122 -1.760940 60.756392 -5.321926 1.698782 -7.178116 10.536720 0.192055 -0.513259 0.103441 -3.502964 -11.634853 2.314349 29.772350 75.912657 31.358033 0.759135 -11.918223 -4.795471 0.287173 0.700050 0.139268
-36.301120 62.108861 12.938506 175.836838 -52.150522 -0.934242 4.562936 27.144837 1.099689 0.684548 4.709111 0.145597 1.086499 7.419619 0.259044 3.417916 21.886097 1.236540 3.851632 16.668095 3.702725 5.804392 -5.053270 5.539886 6.861030 5.949177 5.755814 -1.937917 -23.361390 -23.584058 -112.393716 -71.624626 140.765812 21.499676 8.767499 23.881072 -11.694000 3.094772 -0.563095 -14.100762 -21.042858 30.251147 3.454735 -84.184717 -19.944537 7.632197 -6.490097 -16.480184 3.741836 -14.724387 -4.763144 -1.755543 60.768101 -5.323663 1.685356 -7.190275 10.542764 0.198894 -0.508513 0.098018 -3.508422 -11.722980 2.320954 29.781198 75.918917 31.361381 0.752570 -11.927390 -4.792034 0.286277 0.706768 0.141333
-36.303287 62.105267 12.936849 175.841707 -52.073427 -0.934586 4.569589 27.147144 1.092033 0.685884 4.711465 0.144744 1.083118 7.380113 0.260641 3.439877 21.928522 1.237381 3.793054 16.642692 3.678640 5.725689 -5.107409 5.512298 6.786917 5.982547 5.750002 -1.922671 -23.151583 -23.381115 -112.932059 -71.785375 141.351509 21.702496 8.921992 23.805115 -11.733646 3.149511 -0.591779 -14.099565 -20.764677 30.109464 1.879638 -84.360750 -18.369868 7.550467 -6.447296 -16.565353 3.752194 -14.806691 -4.766029 -1.763871 60.782324 -5.336065 1.674288 -7.198410 10.543561 0.200257 -0.509429 0.103958 -3.507683 -11.802255 2.328464 29.763238 75.924682 31.344055 0.744578 -11.934513 -4.793980 0.292590 0.711328 0.144994
-36.304721 62.103366 12.933936 175.860285 -52.006664 -0.949593 4.566540 27.179498 1.087695 0.683196 4.694016 0.145011 1.085301 7.341616 0.258800 3.453251 22.042823 1.228806 3.738998 16.542719 3.660102 5.650950 -5.164240 5.479920 6.724719 5.929364 5.744399 -1.896043 -22.925571 -23.186885 -113.348234 -71.898928 141.829713 21.881068 9.079575 23.692125 -11.754371 3.105450 -0.583296 -14.090376 -20.445118 29.923269 0.649707 -84.542690 -17.136142 7.500259 -6.409077 -16.617560 3.748794 -14.873447 -4.765864 -1.763463 60.790479 -5.338588 1.664629 -7.208987 10.535469 0.198216 -0.506434 0.116902 -3.515000 -11.872814 2.340684 29.740976 75.934292 31.322793 0.740128 -11.932348 -4.801364 0.302254 0.705636 0.152164
-36.305511 62.099474 12.932674 175.876125 -51.923267 -0.966821 4.556229 27.135509 1.086160 0.681208 4.735091 0.145960 1.092487 7.346957 0.251575 3.443665 22.066803 1.227011 3.694546 16.490008 3.632346 5.579423 -5.218982 5.442389 6.680713 5.928968 5.730377 -1.854387 -22.700818 -23.004596 -113.624034 -71.959746 142.175025 22.041032 9.234098 23.547967 -11.753049 3.109413 -0.593556 -14.070915 -20.120947 29.716566 0.084046 -84.726053 -16.566871 7.467904 -6.374327 -16.641317 3.748178 -14.959863 -4.763500 -1.773891 60.799007 -5.347284 1.657446 -7.215256 10.535546 0.198544 -0.506314 0.115762 -3.521363 -11.964310 2.369554 29.715339 75.951623 31.288862 0.718445 -11.931080 -4.794058 0.318502 0.698208 0.158492
-36.307189 62.095334 12.931520 175.875119 -51.837150 -0.965488 4.546680 27.147261 1.078497 0.680061 4.716979 0.143776 1.087220 7.411272 0.251038 3.434689 22.008414 1.213317 3.652629 16.462469 3.602595 5.511673 -5.269121 5.401362 6.647691 5.953499 5.715850 -1.806495 -22.474042 -22.833381 -113.768481 -71.969297 142.401167 22.179067 9.381864 23.375914 -11.738719 3.140182 -0.606107 -14.022887 -19.801583 29.487665 0.328022 -84.913336 -16.828053 7.450098 -6.342529 -16.639325 3.757257 -15.051017 -4.765205 -1.760054 60.810646 -5.341815 1.645184 -7.223146 10.538248 0.201143 -0.505801 0.116722 -3.519227 -12.055034 2.385863 29.709902 75.965420 31.271743 0.718014 -11.942579 -4.778992 0.307332 0.701295 0.152502
-36.308213 62.095669 12.926815 175.883244 -51.783996 -0.973998 4.529516 27.191998 1.071643 0.678705 4.698472 0.141244 1.081817 7.433360 0.249860 3.424338 21.991303 1.203242 3.613064 16.437962 3.572380 5.511117 -5.320583 5.376875 6.619349 5.978604 5.700684 -1.754644 -22.245163 -22.669364 -113.804875 -71.932288 142.540201 22.288007 9.520243 23.178189 -11.711949 3.171464 -0.611272 -13.931429 -19.490059 29.236597 1.417410 -85.111203 -17.979032 7.441572 -6.319635 -16.608339 3.759225 -15.103978 -4.761051 -1.747825 60.819527 -5.336411 1.633100 -7.226533 10.530749 0.199477 -0.512343 0.125011 -3.521131 -12.109705 2.400056 29.694417 75.975318 31.253858 0.711095 -11.937489 -4.778427 0.312658 0.689090 0.155118
-36.309777 62.092542 12.924648 175.868227 -51.703668 -0.962859 4.521981 27.190687 1.056301 0.684485 4.659431 0.141925 1.075535 7.454889 0.247771 3.405973 22.014609 1.195439 3.575027 16.416241 3.542446 5.419361 -5.358043 5.325023 6.593481 5.999153 5.687614 -1.700947 -22.007972 -22.512765 -113.759228 -71.859238 142.618810 22.355853 9.643674 22.956276 -11.673345 3.202689 -0.607788 -13.799602 -19.187787 28.970367 3.223944 -85.332434 -19.878108 7.434785 -6.313962 -16.561958 3.774442 -15.189395 -4.763336 -1.740925 60.829618 -5.333827 1.622567 -7.231696 10.534426 0.210029 -0.513314 0.114666 -3.511785 -12.193578 2.415570 29.716376 75.990243 31.254671 0.732861 -11.950573 -4.755950 0.280235 0.691744 0.143746
-36.311491 62.088153 12.923276 175.868033 -51.612154 -0.963623 4.503858 27.179205 1.040131 0.678766 4.680421 0.139216 1.090773 7.375034 0.247971 3.377591 22.077624 1.188814 3.535824 16.397527 3.512687 5.325581 -5.387152 5.274575 6.569724 6.009269 5.680307 -1.646308 -21.752619 -22.367782 -113.661387 -71.759751 142.660097 22.374141 9.752405 22.707697 -11.627402 3.238098 -0.599325 -13.643132 -18.895061 28.697358 5.422460 -85.591128 -22.164419 7.440220 -6.311152 -16.521807 3.778063 -15.285000 -4.767291 -1.735535 60.837384 -5.332436 1.619977 -7.238237 10.532821 0.210290 -0.510844 0.114429 -3.511794 -12.287915 2.428207 29.712080 75.998913 31.246243 0.731920 -11.961569 -4.750582 0.280448 0.699092 0.140511
-36.312797 62.085107 12.920649 175.874786 -51.529092 -0.972373 4.485013 27.177248 1.028397 0.671263 4.699849 0.136495 1.074146 7.415044 0.242657 3.380698 22.018153 1.176163 3.493991 16.382656 3.483660 5.257976 -5.413940 5.235238 6.545167 6.007171 5.678871 -1.587365 -21.473223 -22.233283 -113.520536 -71.635354 142.669356 22.350379 9.855214 22.432407 -11.580592 3.277227 -0.591879 -13.474806 -18.605909 28.423717 7.846824 -85.875162 -24.677116 7.458363 -6.302508 -16.487271 3.775253 -15.370665 -4.767409 -1.733425 60.844227 -5.335294 1.621096 -7.241083 10.530914 0.207065 -0.512851 0.114589 -3.514969 -12.374974 2.447146 29.689629 76.011628 31.218449 0.730509 -11.962483 -4.750919 0.289392 0.697223 0.145366
-36.312549 62.083513 12.916765 175.870814 -51.455307 -0.981606 4.479268 27.184317 1.026879 0.675591 4.658644 0.137610 1.059120 7.473344 0.238518 3.372489 21.996840 1.166302 3.467230 16.354566 3.460060 5.168455 -5.419047 5.200884 6.518062 5.997205 5.678683 -1.527938 -21.173900 -22.100322 -113.316631 -71.484072 142.631452 22.298735 9.960509 22.136845 -11.536856 3.317747 -0.588131 -13.301832 -18.316779 28.153272 10.591839 -86.164000 -27.520584 7.473237 -6.291600 -16.467487 3.775346 -15.446620 -4.757964 -1.727258 60.850468 -5.334108 1.621498 -7.243705 10.531358 0.201528 -0.515606 0.114166 -3.512075 -12.451991 2.473443 29.691876 76.033620 31.212893 0.738923 -11.975372 -4.738405 0.277263 0.696628 0.138559
